# xmcd
#
# Track frame offsets: 
#        150
#        17765
#        54981
#        72715
#        89436
#        110314
#        129602
#        157838
#        176896
#        201129
#        228702
#        248287
#
# Disc length: 3474 seconds
#
# Revision: 0
# Processed by: cddbd v1.5.2PL0 Copyright (c) Steve Scherf et al.
# Submitted via: ExactAudioCopy v0.99pb3
#
DISCID=9e0d900c
DTITLE=Joe Jonas And University Of The Blues - Juke At The Joint
DYEAR=2000
DGENRE=Blues
TTITLE0=Big House Shuffle
TTITLE1=Open House At My House
TTITLE2=Woke Up This Morning
TTITLE3=Green Onions
TTITLE4=Members Only
TTITLE5=You're So Cold
TTITLE6=Ain't Nobody's Business
TTITLE7=Honky Tonk
TTITLE8=T.D.C. Blues
TTITLE9=Stormy Monday Blues
TTITLE10=Amazing Grace
TTITLE11=Stumble
EXTD=
EXTT0=
EXTT1=
EXTT2=
EXTT3=
EXTT4=
EXTT5=
EXTT6=
EXTT7=
EXTT8=
EXTT9=
EXTT10=
EXTT11=
PLAYORDER=
